<svg width="1794" height="882" viewBox="0 0 1794 882" fill="none" xmlns="http://www.w3.org/2000/svg">
<path d="M103.426 265.754C106.936 269.517 109.146 273.338 110.057 277.217C110.969 281.067 110.658 284.903 109.125 288.726C107.576 292.534 104.883 296.228 101.043 299.809L91.5812 308.632L60.4224 275.219L70.9127 265.436C74.4171 262.168 78.0394 259.958 81.7794 258.807C85.5053 257.64 89.2133 257.614 92.9037 258.731C96.5798 259.832 100.087 262.173 103.426 265.754ZM96.2375 272.799C93.9358 270.331 91.6804 268.645 89.4714 267.743C87.2634 266.811 85.0957 266.624 82.9683 267.184C80.8561 267.729 78.7639 268.968 76.6918 270.9L72.9207 274.417L93.2102 296.175L96.2499 293.34C99.7086 290.115 101.416 286.799 101.373 283.392C101.345 279.972 99.6333 276.44 96.2375 272.799ZM126.229 276.323L95.0703 242.909L102.155 236.302L133.314 269.716L126.229 276.323ZM136.78 204.014L156.58 248.02L148.855 255.223L106.361 232.381L113.514 225.71L138.341 239.733C138.76 239.968 139.525 240.437 140.636 241.139C141.732 241.826 142.885 242.574 144.095 243.383C145.306 244.162 146.27 244.844 146.986 245.429C146.453 244.674 145.824 243.679 145.101 242.445C144.392 241.197 143.726 240.009 143.102 238.882C142.479 237.725 142.058 236.922 141.838 236.472L129.627 210.685L136.78 204.014ZM191.411 215.54L172.167 233.485L141.008 200.071L160.252 182.126L165.666 187.931L153.507 199.269L160.348 206.606L171.661 196.056L177.075 201.861L165.761 212.411L173.796 221.027L185.955 209.689L191.411 215.54ZM176.982 166.525C180.014 163.698 182.854 161.733 185.501 160.632C188.164 159.516 190.664 159.249 193.003 159.832C195.341 160.415 197.561 161.834 199.664 164.089C201.085 165.613 202.038 167.216 202.525 168.899C203.012 170.581 203.152 172.259 202.946 173.932C202.74 175.606 202.324 177.205 201.695 178.731L225.099 184.125L217.237 191.456L197.304 186.073L193.533 189.59L205.49 202.411L198.405 209.018L167.246 175.604L176.982 166.525ZM181.892 172.799L179.744 174.802L188.163 183.83L190.448 181.699C192.794 179.511 194.108 177.559 194.389 175.845C194.671 174.1 194.102 172.466 192.681 170.943C191.203 169.358 189.603 168.742 187.881 169.095C186.174 169.433 184.178 170.668 181.892 172.799ZM224.491 149.611L237.747 137.25L253.902 154.574C252.689 156.787 251.302 158.95 249.74 161.062C248.163 163.159 246.178 165.323 243.786 167.553C240.465 170.651 237.035 172.624 233.497 173.474C229.959 174.323 226.395 174.029 222.804 172.592C219.214 171.154 215.678 168.569 212.197 164.836C208.929 161.332 206.772 157.675 205.726 153.865C204.695 150.04 204.821 146.22 206.104 142.402C207.402 138.571 209.925 134.908 213.673 131.412C215.441 129.764 217.363 128.328 219.44 127.103C221.517 125.879 223.54 124.917 225.51 124.22L228.442 132.083C226.938 132.517 225.367 133.17 223.73 134.041C222.093 134.913 220.559 136.016 219.126 137.352C217.069 139.27 215.72 141.412 215.077 143.777C214.449 146.128 214.512 148.548 215.265 151.036C216.02 153.494 217.47 155.874 219.615 158.175C221.647 160.354 223.749 162.012 225.92 163.149C228.077 164.271 230.243 164.715 232.418 164.481C234.579 164.232 236.688 163.149 238.745 161.231C239.75 160.293 240.553 159.459 241.154 158.728C241.755 157.968 242.311 157.25 242.821 156.575L236.321 149.604L229.99 155.508L224.491 149.611ZM282.465 130.631L263.221 148.576L232.062 115.162L251.306 97.217L256.719 103.022L244.56 114.36L251.402 121.697L262.715 111.147L268.128 116.952L256.815 127.502L264.85 136.118L277.009 124.78L282.465 130.631Z" fill="#1E1E1E"/>
<path d="M1000.43 274.754C1003.94 278.517 1006.15 282.338 1007.06 286.217C1007.97 290.067 1007.66 293.903 1006.12 297.726C1004.58 301.534 1001.88 305.228 998.043 308.809L988.581 317.632L957.422 284.219L967.913 274.436C971.417 271.168 975.039 268.958 978.779 267.807C982.505 266.64 986.213 266.614 989.904 267.731C993.58 268.832 997.087 271.173 1000.43 274.754ZM993.238 281.799C990.936 279.331 988.68 277.645 986.471 276.743C984.263 275.811 982.096 275.624 979.968 276.184C977.856 276.729 975.764 277.968 973.692 279.9L969.921 283.417L990.21 305.175L993.25 302.34C996.709 299.115 998.416 295.799 998.373 292.392C998.345 288.972 996.633 285.44 993.238 281.799ZM1023.23 285.323L992.07 251.909L999.155 245.302L1030.31 278.716L1023.23 285.323ZM1033.78 213.014L1053.58 257.02L1045.86 264.223L1003.36 241.381L1010.51 234.71L1035.34 248.733C1035.76 248.968 1036.53 249.437 1037.64 250.139C1038.73 250.826 1039.88 251.574 1041.09 252.383C1042.31 253.162 1043.27 253.844 1043.99 254.429C1043.45 253.674 1042.82 252.679 1042.1 251.445C1041.39 250.197 1040.73 249.009 1040.1 247.882C1039.48 246.725 1039.06 245.922 1038.84 245.472L1026.63 219.685L1033.78 213.014ZM1088.41 224.54L1069.17 242.485L1038.01 209.071L1057.25 191.126L1062.67 196.931L1050.51 208.269L1057.35 215.606L1068.66 205.056L1074.07 210.861L1062.76 221.411L1070.8 230.027L1082.95 218.689L1088.41 224.54ZM1073.98 175.525C1077.01 172.698 1079.85 170.733 1082.5 169.632C1085.16 168.516 1087.66 168.249 1090 168.832C1092.34 169.415 1094.56 170.834 1096.66 173.089C1098.08 174.613 1099.04 176.216 1099.53 177.899C1100.01 179.581 1100.15 181.259 1099.95 182.932C1099.74 184.606 1099.32 186.205 1098.7 187.731L1122.1 193.125L1114.24 200.456L1094.3 195.073L1090.53 198.59L1102.49 211.411L1095.4 218.018L1064.25 184.604L1073.98 175.525ZM1078.89 181.799L1076.74 183.802L1085.16 192.83L1087.45 190.699C1089.79 188.511 1091.11 186.559 1091.39 184.845C1091.67 183.1 1091.1 181.466 1089.68 179.943C1088.2 178.358 1086.6 177.742 1084.88 178.095C1083.17 178.433 1081.18 179.668 1078.89 181.799ZM1121.49 158.611L1134.75 146.25L1150.9 163.574C1149.69 165.787 1148.3 167.95 1146.74 170.062C1145.16 172.159 1143.18 174.323 1140.79 176.553C1137.46 179.651 1134.03 181.624 1130.5 182.474C1126.96 183.323 1123.39 183.029 1119.8 181.592C1116.21 180.154 1112.68 177.569 1109.2 173.836C1105.93 170.332 1103.77 166.675 1102.73 162.865C1101.69 159.04 1101.82 155.22 1103.1 151.402C1104.4 147.571 1106.93 143.908 1110.67 140.412C1112.44 138.764 1114.36 137.328 1116.44 136.103C1118.52 134.879 1120.54 133.917 1122.51 133.22L1125.44 141.083C1123.94 141.517 1122.37 142.17 1120.73 143.041C1119.09 143.913 1117.56 145.016 1116.13 146.352C1114.07 148.27 1112.72 150.412 1112.08 152.777C1111.45 155.128 1111.51 157.548 1112.27 160.036C1113.02 162.494 1114.47 164.874 1116.62 167.175C1118.65 169.354 1120.75 171.012 1122.92 172.149C1125.08 173.271 1127.24 173.715 1129.42 173.481C1131.58 173.232 1133.69 172.149 1135.74 170.231C1136.75 169.293 1137.55 168.459 1138.15 167.728C1138.76 166.968 1139.31 166.25 1139.82 165.575L1133.32 158.604L1126.99 164.508L1121.49 158.611ZM1179.46 139.631L1160.22 157.576L1129.06 124.162L1148.31 106.217L1153.72 112.022L1141.56 123.36L1148.4 130.697L1159.71 120.147L1165.13 125.952L1153.81 136.502L1161.85 145.118L1174.01 133.78L1179.46 139.631Z" fill="#1E1E1E"/>
<path d="M594.464 65.8914C593.108 64.6269 591.656 63.7711 590.107 63.324C588.588 62.8759 587.008 62.8131 585.369 63.1357C583.744 63.4725 582.096 64.1713 580.423 65.232C578.75 66.2928 577.097 67.6993 575.463 69.4515C573.26 71.8131 571.667 74.1019 570.683 76.3179C569.729 78.5328 569.457 80.6575 569.867 82.6921C570.291 84.7115 571.478 86.6305 573.429 88.4491C574.785 89.7137 576.283 90.8258 577.923 91.7857C579.578 92.7597 581.469 93.7107 583.594 94.6389L578.053 100.581C576.007 99.8124 574.147 98.8897 572.473 97.8132C570.785 96.7518 569.05 95.39 567.267 93.7276C563.824 90.5165 561.65 87.1653 560.747 83.6739C559.874 80.1814 560.097 76.6581 561.417 73.1037C562.752 69.5342 565.018 66.0353 568.215 62.6071C570.573 60.0778 573.076 58.0816 575.722 56.6183C578.368 55.155 581.072 54.272 583.833 53.9692C586.593 53.6665 589.339 54.0054 592.071 54.9861C594.803 55.9667 597.433 57.6363 599.963 59.9949C601.623 61.5436 603.085 63.3056 604.348 65.2809C605.641 67.2552 606.708 69.3185 607.549 71.4707L599.893 75.0988C599.198 73.3395 598.424 71.6493 597.571 70.0282C596.719 68.407 595.683 67.0281 594.464 65.8914ZM629.962 120.017C627.561 122.592 625.053 124.64 622.438 126.161C619.837 127.667 617.171 128.571 614.44 128.872C611.724 129.188 608.985 128.827 606.221 127.788C603.472 126.735 600.734 124.936 598.007 122.393C595.28 119.85 593.294 117.244 592.051 114.575C590.823 111.891 590.264 109.176 590.374 106.43C590.5 103.699 591.23 100.976 592.565 98.2613C593.9 95.5466 595.775 92.8942 598.191 90.304C601.416 86.8453 604.786 84.3618 608.301 82.8535C611.844 81.3441 615.458 80.9821 619.141 81.7674C622.824 82.5527 626.486 84.6432 630.128 88.039C633.754 91.4206 636.072 94.9068 637.082 98.4977C638.107 102.103 637.983 105.718 636.709 109.345C635.451 112.985 633.202 116.543 629.962 120.017ZM605.576 97.2763C603.402 99.6075 601.816 101.889 600.818 104.12C599.849 106.35 599.563 108.505 599.96 110.584C600.371 112.648 601.567 114.604 603.548 116.451C605.559 118.326 607.609 119.397 609.696 119.663C611.798 119.914 613.913 119.464 616.039 118.314C618.195 117.163 620.36 115.421 622.534 113.09C625.802 109.586 627.719 106.217 628.284 102.984C628.849 99.7507 627.631 96.7346 624.629 93.9355C622.633 92.0743 620.577 91.0111 618.46 90.746C616.372 90.4798 614.242 90.9153 612.071 92.0525C609.929 93.1886 607.764 94.9298 605.576 97.2763ZM650.908 170.869L641.903 162.472L650.939 123.64L650.733 123.448C649.814 124.556 648.88 125.665 647.931 126.774C646.982 127.883 646.033 128.992 645.084 130.102C644.149 131.196 643.208 132.297 642.259 133.406L627.596 149.13L621.265 143.227L652.424 109.813L661.36 118.146L652.536 156.706L652.696 156.855C653.631 155.79 654.552 154.726 655.459 153.663C656.365 152.6 657.271 151.536 658.177 150.473C659.099 149.423 660.02 148.374 660.942 147.325L675.69 131.509L682.067 137.455L650.908 170.869ZM716.714 169.765L674.197 192.587L666.472 185.383L686.295 141.398L693.448 148.069L681.192 173.814C680.986 174.248 680.571 175.044 679.948 176.201C679.34 177.342 678.674 178.545 677.952 179.808C677.259 181.071 676.645 182.08 676.112 182.835C676.828 182.25 677.777 181.554 678.957 180.746C680.153 179.952 681.291 179.205 682.372 178.504C683.483 177.802 684.255 177.325 684.688 177.074L709.561 163.094L716.714 169.765ZM709.028 225.067L689.784 207.122L720.943 173.708L740.186 191.653L734.773 197.458L722.614 186.12L715.773 193.456L727.086 204.006L721.673 209.811L710.36 199.261L702.325 207.878L714.484 219.216L709.028 225.067ZM756.916 207.254C759.948 210.081 762.106 212.777 763.389 215.341C764.688 217.92 765.128 220.395 764.71 222.768C764.292 225.142 763.031 227.456 760.928 229.711C759.508 231.234 757.975 232.297 756.33 232.9C754.686 233.503 753.022 233.76 751.338 233.672C749.655 233.583 748.03 233.279 746.464 232.758L742.716 256.481L734.853 249.15L738.833 228.89L735.062 225.374L723.106 238.195L716.021 231.588L747.18 198.175L756.916 207.254ZM751 212.59L748.852 210.587L740.433 219.614L742.719 221.745C745.065 223.934 747.103 225.108 748.834 225.269C750.593 225.428 752.184 224.746 753.604 223.223C755.082 221.638 755.585 219.999 755.113 218.306C754.656 216.626 753.285 214.721 751 212.59ZM777.103 253.467L790.359 265.829L774.204 283.153C771.912 282.098 769.657 280.864 767.441 279.453C765.239 278.026 762.942 276.198 760.55 273.967C757.229 270.87 755.021 267.586 753.927 264.116C752.833 260.646 752.877 257.07 754.061 253.388C755.244 249.705 757.576 245.998 761.057 242.265C764.325 238.76 767.823 236.354 771.551 235.044C775.294 233.749 779.114 233.608 783.011 234.622C786.924 235.65 790.754 237.911 794.503 241.406C796.27 243.055 797.837 244.872 799.204 246.858C800.57 248.845 801.67 250.796 802.504 252.713L794.864 256.186C794.326 254.716 793.566 253.195 792.582 251.622C791.598 250.05 790.391 248.596 788.958 247.26C786.901 245.342 784.671 244.145 782.266 243.669C779.877 243.207 777.467 243.439 775.038 244.364C772.638 245.288 770.366 246.9 768.22 249.201C766.188 251.379 764.681 253.592 763.698 255.837C762.729 258.067 762.437 260.259 762.822 262.412C763.221 264.55 764.449 266.579 766.506 268.497C767.512 269.434 768.4 270.177 769.171 270.725C769.971 271.272 770.726 271.776 771.435 272.238L777.935 265.267L771.604 259.364L777.103 253.467ZM800.081 309.975L780.837 292.03L811.996 258.617L831.24 276.562L825.827 282.367L813.668 271.029L806.826 278.365L818.14 288.915L812.726 294.72L801.413 284.17L793.378 292.786L805.537 304.125L800.081 309.975Z" fill="#1E1E1E"/>
<path d="M1508.89 89.8529C1507.55 88.5649 1506.12 87.6838 1504.58 87.2098C1503.06 86.7352 1501.49 86.6449 1499.84 86.9388C1498.21 87.2472 1496.55 87.9171 1494.86 88.9485C1493.17 89.9799 1491.49 91.3573 1489.83 93.0807C1487.58 95.4036 1485.95 97.6643 1484.93 99.8627C1483.94 102.061 1483.63 104.18 1484 106.222C1484.39 108.248 1485.54 110.188 1487.46 112.04C1488.79 113.328 1490.27 114.466 1491.9 115.454C1493.53 116.457 1495.41 117.441 1497.52 118.406L1491.87 124.251C1489.84 123.447 1488 122.492 1486.34 121.386C1484.67 120.295 1482.96 118.903 1481.21 117.21C1477.82 113.939 1475.71 110.551 1474.87 107.044C1474.05 103.537 1474.34 100.018 1475.72 96.4873C1477.12 92.9416 1479.44 89.4828 1482.7 86.1109C1485.1 83.6232 1487.64 81.6709 1490.31 80.254C1492.98 78.8372 1495.7 78.0015 1498.47 77.7469C1501.23 77.4924 1503.97 77.8792 1506.68 78.9074C1509.4 79.9356 1512 81.6508 1514.49 84.0532C1516.12 85.6307 1517.55 87.4179 1518.78 89.415C1520.04 91.4115 1521.07 93.4931 1521.87 95.6596L1514.15 99.1536C1513.49 97.3825 1512.75 95.679 1511.92 94.0432C1511.1 92.4074 1510.09 91.0106 1508.89 89.8529ZM1543.44 144.589C1540.99 147.122 1538.45 149.126 1535.8 150.601C1533.18 152.062 1530.5 152.919 1527.76 153.173C1525.04 153.441 1522.31 153.032 1519.56 151.946C1516.83 150.844 1514.13 148.998 1511.44 146.408C1508.76 143.817 1506.82 141.177 1505.63 138.487C1504.44 135.782 1503.93 133.057 1504.09 130.314C1504.26 127.585 1505.04 124.876 1506.42 122.185C1507.81 119.494 1509.73 116.874 1512.19 114.327C1515.47 110.925 1518.89 108.501 1522.43 107.054C1526 105.607 1529.61 105.308 1533.28 106.157C1536.95 107.007 1540.58 109.161 1544.16 112.619C1547.73 116.064 1549.98 119.59 1550.93 123.198C1551.89 126.82 1551.7 130.433 1550.37 134.037C1549.05 137.655 1546.73 141.173 1543.44 144.589ZM1519.45 121.427C1517.24 123.72 1515.61 125.973 1514.57 128.186C1513.57 130.399 1513.24 132.549 1513.6 134.634C1513.98 136.705 1515.14 138.682 1517.09 140.563C1519.07 142.473 1521.1 143.58 1523.18 143.882C1525.28 144.17 1527.4 143.757 1529.54 142.644C1531.72 141.53 1533.92 139.827 1536.13 137.534C1539.46 134.087 1541.43 130.753 1542.05 127.53C1542.68 124.307 1541.51 121.27 1538.56 118.419C1536.6 116.523 1534.56 115.424 1532.45 115.122C1530.36 114.82 1528.23 115.218 1526.03 116.317C1523.87 117.416 1521.68 119.119 1519.45 121.427ZM1563.49 195.8L1554.63 187.247L1564.35 148.578L1564.14 148.383C1563.2 149.475 1562.25 150.567 1561.28 151.659C1560.32 152.752 1559.35 153.844 1558.38 154.937C1557.43 156.014 1556.46 157.099 1555.5 158.192L1540.56 173.657L1534.33 167.644L1566.07 134.779L1574.86 143.267L1565.37 181.667L1565.52 181.819C1566.48 180.771 1567.42 179.723 1568.34 178.676C1569.27 177.628 1570.19 176.581 1571.11 175.533C1572.05 174.5 1572.99 173.467 1573.93 172.434L1588.96 156.878L1595.23 162.935L1563.49 195.8ZM1629.31 195.844L1586.4 217.92L1578.8 210.583L1599.39 166.951L1606.42 173.745L1593.72 199.272C1593.5 199.703 1593.08 200.492 1592.43 201.637C1591.8 202.768 1591.12 203.959 1590.37 205.209C1589.66 206.459 1589.03 207.458 1588.48 208.204C1589.21 207.631 1590.17 206.951 1591.36 206.164C1592.57 205.392 1593.72 204.665 1594.82 203.983C1595.94 203.3 1596.72 202.837 1597.16 202.594L1622.27 189.05L1629.31 195.844ZM1620.66 251.003L1601.73 232.725L1633.46 199.86L1652.39 218.138L1646.88 223.848L1634.92 212.3L1627.95 219.515L1639.08 230.261L1633.56 235.971L1622.44 225.225L1614.25 233.7L1626.21 245.249L1620.66 251.003ZM1668.85 234.029C1671.83 236.909 1673.94 239.642 1675.18 242.228C1676.43 244.829 1676.83 247.312 1676.37 249.677C1675.91 252.043 1674.61 254.334 1672.47 256.552C1671.02 258.051 1669.47 259.087 1667.81 259.661C1666.16 260.235 1664.49 260.463 1662.81 260.345C1661.13 260.227 1659.51 259.895 1657.95 259.347L1653.79 283.001L1646.06 275.533L1650.39 255.346L1646.68 251.765L1634.5 264.375L1627.53 257.646L1659.27 224.781L1668.85 234.029ZM1662.84 239.261L1660.73 237.22L1652.15 246.1L1654.4 248.271C1656.71 250.499 1658.72 251.709 1660.45 251.9C1662.21 252.09 1663.81 251.436 1665.26 249.937C1666.76 248.379 1667.29 246.749 1666.85 245.048C1666.42 243.361 1665.09 241.432 1662.84 239.261ZM1688.22 280.588L1701.26 293.178L1684.81 310.218C1682.53 309.123 1680.3 307.851 1678.11 306.401C1675.93 304.936 1673.67 303.067 1671.32 300.795C1668.05 297.64 1665.9 294.319 1664.87 290.83C1663.83 287.342 1663.94 283.767 1665.19 280.106C1666.43 276.445 1668.83 272.779 1672.38 269.107C1675.71 265.66 1679.24 263.315 1682.99 262.07C1686.76 260.841 1690.58 260.767 1694.46 261.848C1698.36 262.944 1702.15 265.272 1705.83 268.832C1707.57 270.511 1709.11 272.355 1710.44 274.365C1711.77 276.375 1712.83 278.346 1713.63 280.277L1705.94 283.616C1705.42 282.137 1704.69 280.602 1703.73 279.013C1702.78 277.424 1701.6 275.949 1700.19 274.589C1698.16 272.635 1695.95 271.399 1693.56 270.881C1691.18 270.377 1688.76 270.567 1686.32 271.449C1683.9 272.331 1681.6 273.904 1679.42 276.167C1677.35 278.31 1675.8 280.495 1674.78 282.723C1673.77 284.936 1673.44 287.122 1673.79 289.282C1674.15 291.427 1675.34 293.476 1677.37 295.43C1678.36 296.385 1679.23 297.143 1679.99 297.705C1680.78 298.265 1681.53 298.783 1682.23 299.257L1688.85 292.401L1682.62 286.387L1688.22 280.588ZM1710.21 337.488L1691.29 319.21L1723.02 286.345L1741.95 304.623L1736.44 310.333L1724.48 298.785L1717.51 306L1728.64 316.746L1723.12 322.456L1712 311.71L1703.81 320.185L1715.77 331.734L1710.21 337.488Z" fill="#1E1E1E"/>
<path d="M8 440.5L446.777 25.0001L446.777 440.5L446.777 852.5L8 440.5Z" fill="#366595"/>
<path d="M446.777 25.0001L446.777 440.5L446.777 852.5L888.5 440.5L446.777 25.0001Z" fill="#84B1DF"/>
<path d="M446.777 25.0001L8 440.5L446.777 852.5M446.777 25.0001L446.777 440.5L446.777 852.5M446.777 25.0001L888.5 440.5L446.777 852.5" stroke="#062E56" stroke-width="10"/>
<path d="M906 441.25L1344.78 25.7501L1344.78 441.25L1344.78 853.25L906 441.25Z" fill="#F6ECBD"/>
<path d="M1344.78 25.7501L1344.78 441.25L1344.78 853.25L1786.5 441.25L1344.78 25.7501Z" fill="#F3CC9F"/>
<path d="M1344.78 25.7501L906 441.25L1344.78 853.25M1344.78 25.7501L1344.78 441.25L1344.78 853.25M1344.78 25.7501L1786.5 441.25L1344.78 853.25" stroke="#C35501" stroke-width="10"/>
<path d="M191.727 442.16C191.727 446.145 190.984 449.457 189.5 452.098C188.016 454.738 185.922 456.723 183.219 458.051C180.531 459.363 177.367 460.02 173.727 460.02H162.641V425.754H174.5C178.188 425.754 181.312 426.387 183.875 427.652C186.438 428.918 188.383 430.77 189.711 433.207C191.055 435.645 191.727 438.629 191.727 442.16ZM182.117 442.488C182.117 440.41 181.836 438.691 181.273 437.332C180.727 435.957 179.898 434.934 178.789 434.262C177.68 433.574 176.281 433.23 174.594 433.23H171.898V452.426H173.961C176.773 452.426 178.836 451.613 180.148 449.988C181.461 448.348 182.117 445.848 182.117 442.488ZM197.891 460.02V425.754H207.195V460.02H197.891ZM237.031 449.613C237.031 451.473 236.562 453.238 235.625 454.91C234.688 456.566 233.227 457.91 231.242 458.941C229.273 459.973 226.727 460.488 223.602 460.488C222.039 460.488 220.664 460.418 219.477 460.277C218.305 460.137 217.211 459.91 216.195 459.598C215.18 459.27 214.125 458.848 213.031 458.332V450.082C214.891 451.02 216.766 451.738 218.656 452.238C220.547 452.723 222.258 452.965 223.789 452.965C224.711 452.965 225.461 452.855 226.039 452.637C226.633 452.418 227.07 452.121 227.352 451.746C227.633 451.355 227.773 450.91 227.773 450.41C227.773 449.816 227.562 449.316 227.141 448.91C226.734 448.488 226.078 448.051 225.172 447.598C224.266 447.145 223.07 446.582 221.586 445.91C220.32 445.316 219.172 444.707 218.141 444.082C217.125 443.457 216.25 442.746 215.516 441.949C214.797 441.137 214.242 440.191 213.852 439.113C213.461 438.035 213.266 436.762 213.266 435.293C213.266 433.09 213.805 431.246 214.883 429.762C215.977 428.262 217.492 427.137 219.43 426.387C221.383 425.637 223.633 425.262 226.18 425.262C228.414 425.262 230.422 425.512 232.203 426.012C234 426.512 235.609 427.082 237.031 427.723L234.195 434.871C232.727 434.199 231.281 433.668 229.859 433.277C228.438 432.871 227.117 432.668 225.898 432.668C225.102 432.668 224.445 432.77 223.93 432.973C223.43 433.16 223.055 433.418 222.805 433.746C222.57 434.074 222.453 434.449 222.453 434.871C222.453 435.402 222.656 435.879 223.062 436.301C223.484 436.723 224.18 437.184 225.148 437.684C226.133 438.168 227.469 438.801 229.156 439.582C230.828 440.332 232.25 441.145 233.422 442.02C234.594 442.879 235.484 443.918 236.094 445.137C236.719 446.34 237.031 447.832 237.031 449.613ZM257.586 432.855C256.492 432.855 255.516 433.09 254.656 433.559C253.797 434.012 253.062 434.676 252.453 435.551C251.844 436.426 251.375 437.496 251.047 438.762C250.734 440.012 250.578 441.434 250.578 443.027C250.578 445.184 250.852 446.996 251.398 448.465C251.945 449.934 252.773 451.043 253.883 451.793C255.008 452.543 256.414 452.918 258.102 452.918C259.633 452.918 261.102 452.707 262.508 452.285C263.93 451.863 265.359 451.355 266.797 450.762V458.59C265.281 459.262 263.727 459.746 262.133 460.043C260.555 460.34 258.875 460.488 257.094 460.488C253.375 460.488 250.328 459.754 247.953 458.285C245.594 456.801 243.852 454.746 242.727 452.121C241.617 449.496 241.062 446.449 241.062 442.98C241.062 440.387 241.422 438.012 242.141 435.855C242.875 433.699 243.945 431.832 245.352 430.254C246.758 428.66 248.492 427.434 250.555 426.574C252.633 425.699 255.008 425.262 257.68 425.262C259.336 425.262 261.078 425.457 262.906 425.848C264.75 426.223 266.547 426.832 268.297 427.676L265.461 434.965C264.211 434.371 262.945 433.871 261.664 433.465C260.383 433.059 259.023 432.855 257.586 432.855ZM305.562 442.84C305.562 445.48 305.242 447.887 304.602 450.059C303.977 452.215 302.992 454.074 301.648 455.637C300.305 457.199 298.578 458.402 296.469 459.246C294.359 460.074 291.836 460.488 288.898 460.488C286.023 460.488 283.531 460.074 281.422 459.246C279.328 458.402 277.602 457.207 276.242 455.66C274.883 454.098 273.875 452.23 273.219 450.059C272.562 447.887 272.234 445.465 272.234 442.793C272.234 439.23 272.82 436.137 273.992 433.512C275.18 430.871 277.008 428.832 279.477 427.395C281.945 425.941 285.102 425.215 288.945 425.215C292.852 425.215 296.023 425.941 298.461 427.395C300.914 428.848 302.711 430.895 303.852 433.535C304.992 436.176 305.562 439.277 305.562 442.84ZM281.984 442.84C281.984 444.902 282.219 446.676 282.688 448.16C283.156 449.645 283.898 450.785 284.914 451.582C285.93 452.379 287.258 452.777 288.898 452.777C290.602 452.777 291.953 452.379 292.953 451.582C293.969 450.785 294.695 449.645 295.133 448.16C295.586 446.676 295.812 444.902 295.812 442.84C295.812 439.746 295.297 437.301 294.266 435.504C293.234 433.707 291.461 432.809 288.945 432.809C287.273 432.809 285.922 433.215 284.891 434.027C283.875 434.84 283.133 435.996 282.664 437.496C282.211 438.996 281.984 440.777 281.984 442.84ZM341.352 425.754L330.125 460.02H319.227L308.047 425.754H318.453L323.117 443.121C323.289 443.777 323.484 444.621 323.703 445.652C323.938 446.668 324.148 447.684 324.336 448.699C324.539 449.715 324.664 450.543 324.711 451.184C324.773 450.543 324.891 449.723 325.062 448.723C325.234 447.723 325.422 446.723 325.625 445.723C325.844 444.707 326.047 443.871 326.234 443.215L330.992 425.754H341.352ZM365.422 460.02H345.078V425.754H365.422V433.184H354.336V438.574H364.602V446.004H354.336V452.473H365.422V460.02ZM382.648 425.754C385.758 425.754 388.344 426.137 390.406 426.902C392.469 427.652 394.016 428.777 395.047 430.277C396.094 431.777 396.617 433.645 396.617 435.879C396.617 437.27 396.383 438.535 395.914 439.676C395.445 440.816 394.773 441.84 393.898 442.746C393.039 443.637 392.008 444.418 390.805 445.09L400.789 460.02H390.289L383.023 447.551H380.68V460.02H371.422V425.754H382.648ZM382.508 432.762H380.68V440.59H382.414C383.836 440.59 385 440.277 385.906 439.652C386.812 439.027 387.266 437.91 387.266 436.301C387.266 435.191 386.891 434.324 386.141 433.699C385.391 433.074 384.18 432.762 382.508 432.762Z" fill="white"/>
<path d="M519.789 442.141C519.789 446.125 519.047 449.438 517.562 452.078C516.078 454.719 513.984 456.703 511.281 458.031C508.594 459.344 505.43 460 501.789 460H490.703V425.734H502.562C506.25 425.734 509.375 426.367 511.938 427.633C514.5 428.898 516.445 430.75 517.773 433.188C519.117 435.625 519.789 438.609 519.789 442.141ZM510.18 442.469C510.18 440.391 509.898 438.672 509.336 437.312C508.789 435.938 507.961 434.914 506.852 434.242C505.742 433.555 504.344 433.211 502.656 433.211H499.961V452.406H502.023C504.836 452.406 506.898 451.594 508.211 449.969C509.523 448.328 510.18 445.828 510.18 442.469ZM546.297 460H525.953V425.734H546.297V433.164H535.211V438.555H545.477V445.984H535.211V452.453H546.297V460ZM561.414 460H552.297V425.734H572.547V433.164H561.414V439.703H571.68V447.133H561.414V460ZM578.172 460V425.734H587.477V460H578.172ZM627.531 460H615.391L602.875 435.859H602.664C602.742 436.594 602.812 437.477 602.875 438.508C602.938 439.539 602.992 440.594 603.039 441.672C603.086 442.734 603.109 443.695 603.109 444.555V460H594.906V425.734H607L619.469 449.547H619.609C619.562 448.797 619.516 447.93 619.469 446.945C619.422 445.945 619.375 444.938 619.328 443.922C619.297 442.906 619.281 442.008 619.281 441.227V425.734H627.531V460ZM655.281 460H634.938V425.734H655.281V433.164H644.195V438.555H654.461V445.984H644.195V452.453H655.281V460Z" fill="white"/>
<path d="M1119.79 442.141C1119.79 446.125 1119.05 449.438 1117.56 452.078C1116.08 454.719 1113.98 456.703 1111.28 458.031C1108.59 459.344 1105.43 460 1101.79 460H1090.7V425.734H1102.56C1106.25 425.734 1109.38 426.367 1111.94 427.633C1114.5 428.898 1116.45 430.75 1117.77 433.188C1119.12 435.625 1119.79 438.609 1119.79 442.141ZM1110.18 442.469C1110.18 440.391 1109.9 438.672 1109.34 437.312C1108.79 435.938 1107.96 434.914 1106.85 434.242C1105.74 433.555 1104.34 433.211 1102.66 433.211H1099.96V452.406H1102.02C1104.84 452.406 1106.9 451.594 1108.21 449.969C1109.52 448.328 1110.18 445.828 1110.18 442.469ZM1146.3 460H1125.95V425.734H1146.3V433.164H1135.21V438.555H1145.48V445.984H1135.21V452.453H1146.3V460ZM1181.9 425.734L1170.67 460H1159.77L1148.59 425.734H1159L1163.66 443.102C1163.84 443.758 1164.03 444.602 1164.25 445.633C1164.48 446.648 1164.7 447.664 1164.88 448.68C1165.09 449.695 1165.21 450.523 1165.26 451.164C1165.32 450.523 1165.44 449.703 1165.61 448.703C1165.78 447.703 1165.97 446.703 1166.17 445.703C1166.39 444.688 1166.59 443.852 1166.78 443.195L1171.54 425.734H1181.9ZM1205.97 460H1185.62V425.734H1205.97V433.164H1194.88V438.555H1205.15V445.984H1194.88V452.453H1205.97V460ZM1211.97 460V425.734H1221.23V452.523H1234.42V460H1211.97ZM1271.97 442.82C1271.97 445.461 1271.65 447.867 1271.01 450.039C1270.38 452.195 1269.4 454.055 1268.05 455.617C1266.71 457.18 1264.98 458.383 1262.88 459.227C1260.77 460.055 1258.24 460.469 1255.3 460.469C1252.43 460.469 1249.94 460.055 1247.83 459.227C1245.73 458.383 1244.01 457.188 1242.65 455.641C1241.29 454.078 1240.28 452.211 1239.62 450.039C1238.97 447.867 1238.64 445.445 1238.64 442.773C1238.64 439.211 1239.23 436.117 1240.4 433.492C1241.59 430.852 1243.41 428.812 1245.88 427.375C1248.35 425.922 1251.51 425.195 1255.35 425.195C1259.26 425.195 1262.43 425.922 1264.87 427.375C1267.32 428.828 1269.12 430.875 1270.26 433.516C1271.4 436.156 1271.97 439.258 1271.97 442.82ZM1248.39 442.82C1248.39 444.883 1248.62 446.656 1249.09 448.141C1249.56 449.625 1250.3 450.766 1251.32 451.562C1252.34 452.359 1253.66 452.758 1255.3 452.758C1257.01 452.758 1258.36 452.359 1259.36 451.562C1260.38 450.766 1261.1 449.625 1261.54 448.141C1261.99 446.656 1262.22 444.883 1262.22 442.82C1262.22 439.727 1261.7 437.281 1260.67 435.484C1259.64 433.688 1257.87 432.789 1255.35 432.789C1253.68 432.789 1252.33 433.195 1251.3 434.008C1250.28 434.82 1249.54 435.977 1249.07 437.477C1248.62 438.977 1248.39 440.758 1248.39 442.82ZM1290.02 425.734C1294.36 425.734 1297.61 426.68 1299.77 428.57C1301.94 430.461 1303.02 433.148 1303.02 436.633C1303.02 438.195 1302.8 439.695 1302.34 441.133C1301.91 442.57 1301.18 443.852 1300.16 444.977C1299.16 446.102 1297.83 446.992 1296.16 447.648C1294.5 448.305 1292.45 448.633 1290.02 448.633H1287.41V460H1278.16V425.734H1290.02ZM1289.8 433.211H1287.41V441.086H1289.24C1290.04 441.086 1290.78 440.953 1291.47 440.688C1292.16 440.406 1292.7 439.961 1293.11 439.352C1293.53 438.727 1293.74 437.898 1293.74 436.867C1293.74 435.789 1293.42 434.914 1292.78 434.242C1292.14 433.555 1291.15 433.211 1289.8 433.211Z" fill="#1E1E1E"/>
<path d="M1419.79 442.141C1419.79 446.125 1419.05 449.438 1417.56 452.078C1416.08 454.719 1413.98 456.703 1411.28 458.031C1408.59 459.344 1405.43 460 1401.79 460H1390.7V425.734H1402.56C1406.25 425.734 1409.38 426.367 1411.94 427.633C1414.5 428.898 1416.45 430.75 1417.77 433.188C1419.12 435.625 1419.79 438.609 1419.79 442.141ZM1410.18 442.469C1410.18 440.391 1409.9 438.672 1409.34 437.312C1408.79 435.938 1407.96 434.914 1406.85 434.242C1405.74 433.555 1404.34 433.211 1402.66 433.211H1399.96V452.406H1402.02C1404.84 452.406 1406.9 451.594 1408.21 449.969C1409.52 448.328 1410.18 445.828 1410.18 442.469ZM1446.3 460H1425.95V425.734H1446.3V433.164H1435.21V438.555H1445.48V445.984H1435.21V452.453H1446.3V460ZM1452.3 460V425.734H1461.55V452.523H1474.75V460H1452.3ZM1480.23 460V425.734H1489.54V460H1480.23ZM1526.57 425.734L1515.34 460H1504.45L1493.27 425.734H1503.67L1508.34 443.102C1508.51 443.758 1508.7 444.602 1508.92 445.633C1509.16 446.648 1509.37 447.664 1509.55 448.68C1509.76 449.695 1509.88 450.523 1509.93 451.164C1509.99 450.523 1510.11 449.703 1510.28 448.703C1510.45 447.703 1510.64 446.703 1510.84 445.703C1511.06 444.688 1511.27 443.852 1511.45 443.195L1516.21 425.734H1526.57ZM1550.64 460H1530.3V425.734H1550.64V433.164H1539.55V438.555H1549.82V445.984H1539.55V452.453H1550.64V460ZM1567.87 425.734C1570.98 425.734 1573.56 426.117 1575.62 426.883C1577.69 427.633 1579.23 428.758 1580.27 430.258C1581.31 431.758 1581.84 433.625 1581.84 435.859C1581.84 437.25 1581.6 438.516 1581.13 439.656C1580.66 440.797 1579.99 441.82 1579.12 442.727C1578.26 443.617 1577.23 444.398 1576.02 445.07L1586.01 460H1575.51L1568.24 447.531H1565.9V460H1556.64V425.734H1567.87ZM1567.73 432.742H1565.9V440.57H1567.63C1569.05 440.57 1570.22 440.258 1571.12 439.633C1572.03 439.008 1572.48 437.891 1572.48 436.281C1572.48 435.172 1572.11 434.305 1571.36 433.68C1570.61 433.055 1569.4 432.742 1567.73 432.742Z" fill="#1E1E1E"/>
</svg>
