<svg width="70" height="70" viewBox="0 0 70 70" fill="currentColor" xmlns="http://www.w3.org/2000/svg">
<path d="M35 0.863464C15.6625 0.863464 0 16.526 0 35.8635C0 51.351 10.0187 64.4322 23.9312 69.0697C25.6812 69.376 26.3375 68.326 26.3375 67.4072C26.3375 66.576 26.2938 63.8197 26.2938 60.8885C17.5 62.5072 15.225 58.7447 14.525 56.776C14.1312 55.7697 12.425 52.6635 10.9375 51.8322C9.7125 51.176 7.9625 49.5572 10.8938 49.5135C13.65 49.4697 15.6187 52.051 16.275 53.101C19.425 58.3947 24.4562 56.9072 26.4688 55.9885C26.775 53.7135 27.6937 52.1822 28.7 51.3072C20.9125 50.4322 12.775 47.4135 12.775 34.026C12.775 30.2197 14.1312 27.0697 16.3625 24.6197C16.0125 23.7447 14.7875 20.1572 16.7125 15.3447C16.7125 15.3447 19.6437 14.426 26.3375 18.9322C29.1375 18.1447 32.1125 17.751 35.0875 17.751C38.0625 17.751 41.0375 18.1447 43.8375 18.9322C50.5312 14.3822 53.4625 15.3447 53.4625 15.3447C55.3875 20.1572 54.1625 23.7447 53.8125 24.6197C56.0438 27.0697 57.4 30.176 57.4 34.026C57.4 47.4572 49.2188 50.4322 41.4313 51.3072C42.7 52.401 43.7938 54.501 43.7938 57.7822C43.7938 62.4635 43.75 66.226 43.75 67.4072C43.75 68.326 44.4062 69.4197 46.1562 69.0697C53.1055 66.7258 59.1442 62.2608 63.4218 56.3036C67.6993 50.3464 70.0001 43.1973 70 35.8635C70 16.526 54.3375 0.863464 35 0.863464Z"/>
</svg>
